0
SECTION
2
HEADER
9
$INSUNITS
70
4
9
$ACADVER
1
AC1014
9
$HANDSEED
5
FFFF
0
ENDSEC
0
SECTION
2
TABLES
0
TABLE
2
VPORT
5
8
100
AcDbSymbolTable
0
ENDTAB
0
TABLE
2
LTYPE
5
5
100
AcDbSymbolTable
0
LTYPE
5
14
100
AcDbSymbolTableRecord
100
AcDbLinetypeTableRecord
2
BYBLOCK
70
0
0
LTYPE
5
15
100
AcDbSymbolTableRecord
100
AcDbLinetypeTableRecord
2
BYLAYER
70
0
0
LTYPE
5
16
100
AcDbSymbolTableRecord
100
AcDbLinetypeTableRecord
2
DASHED
70
0
3
Dashed __ __ __ __ __ __ __ __ __ __ __ __ __ _
72
65
73
2
40
0.75
49
0.5
74
0
49
-0.25
74
0
0
ENDTAB
0
TABLE
2
LAYER
5
2
100
AcDbSymbolTable
70
2
0
LAYER
5
50
100
AcDbSymbolTableRecord
100
AcDbLayerTableRecord
2
0
70
0
62
7
6
CONTINUOUS
0
ENDTAB
0
TABLE
2
STYLE
5
3
100
AcDbSymbolTable
70
1
0
STYLE
5
11
100
AcDbSymbolTableRecord
100
AcDbTextStyleTableRecord
2
STANDARD
70
0
0
ENDTAB
0
TABLE
2
VIEW
5
6
100
AcDbSymbolTable
70
0
0
ENDTAB
0
TABLE
2
UCS
5
7
100
AcDbSymbolTable
70
0
0
ENDTAB
0
TABLE
2
APPID
5
9
100
AcDbSymbolTable
70
2
0
APPID
5
12
100
AcDbSymbolTableRecord
100
AcDbRegAppTableRecord
2
ACAD
70
0
0
ENDTAB
0
TABLE
2
DIMSTYLE
5
A
100
AcDbSymbolTable
70
1
0
ENDTAB
0
TABLE
2
BLOCK_RECORD
5
1
100
AcDbSymbolTable
70
1
0
BLOCK_RECORD
5
1F
100
AcDbSymbolTableRecord
100
AcDbBlockTableRecord
2
*MODEL_SPACE
0
BLOCK_RECORD
5
1B
100
AcDbSymbolTableRecord
100
AcDbBlockTableRecord
2
*PAPER_SPACE
0
ENDTAB
0
ENDSEC
0
SECTION
2
BLOCKS
0
BLOCK
5
20
100
AcDbEntity
100
AcDbBlockBegin
2
*MODEL_SPACE
0
ENDBLK
5
21
100
AcDbEntity
100
AcDbBlockEnd
0
BLOCK
5
1C
100
AcDbEntity
100
AcDbBlockBegin
2
*PAPER_SPACE
0
ENDBLK
5
1D
100
AcDbEntity
100
AcDbBlockEnd
0
ENDSEC
0
SECTION
2
ENTITIES
0
CIRCLE
5
100
100
AcDbEntity
8
0
100
AcDbCircle
10
1.1021821192326179e-15
20
8
30
0
40
1.6000000000000003
210
0
220
0
230
1
0
CIRCLE
5
101
100
AcDbEntity
8
0
100
AcDbCircle
10
-8
20
1.4432899320127035e-15
30
0
40
1.6000000000000003
210
0
220
0
230
1
0
CIRCLE
5
102
100
AcDbEntity
8
0
100
AcDbCircle
10
8
20
-5.5109105961630876e-16
30
0
40
1.6000000000000003
210
0
220
0
230
1
0
CIRCLE
5
103
100
AcDbEntity
8
0
100
AcDbCircle
10
0
20
-8
30
0
40
1.6000000000000003
210
0
220
0
230
1
0
CIRCLE
5
104
100
AcDbEntity
8
0
100
AcDbCircle
10
0
20
0
30
0
40
4
210
0
220
0
230
1
0
CIRCLE
5
105
100
AcDbEntity
8
0
100
AcDbCircle
10
45.380186920123037
20
70.686905683405712
30
0
40
1.6000000000000014
210
0
220
-0
230
1
0
CIRCLE
5
106
100
AcDbEntity
8
0
100
AcDbCircle
10
-45.380186920123037
20
-70.686905683405726
30
0
40
1.6000000000000014
210
0
220
-0
230
1
0
CIRCLE
5
107
100
AcDbEntity
8
0
100
AcDbCircle
10
27.012016023882751
20
42.075539097265292
30
0
40
1.599999999999997
210
0
220
-0
230
1
0
CIRCLE
5
108
100
AcDbEntity
8
0
100
AcDbCircle
10
-27.012016023882751
20
42.075539097265292
30
0
40
1.599999999999997
210
0
220
-0
230
1
0
CIRCLE
5
109
100
AcDbEntity
8
0
100
AcDbCircle
10
-27.012016023882751
20
-42.075539097265292
30
0
40
1.599999999999997
210
0
220
-0
230
1
0
CIRCLE
5
110
100
AcDbEntity
8
0
100
AcDbCircle
10
33.663671950945798
20
68.892197618304493
30
0
40
1.25
210
0
220
-0
230
1
0
CIRCLE
5
111
100
AcDbEntity
8
0
100
AcDbCircle
10
45.380186920123045
20
-70.68690568340574
30
0
40
1.6000000000000014
210
0
220
-0
230
1
0
CIRCLE
5
112
100
AcDbEntity
8
0
100
AcDbCircle
10
27.012016023882751
20
-42.075539097265292
30
0
40
1.599999999999997
210
0
220
-0
230
1
0
CIRCLE
5
113
100
AcDbEntity
8
0
100
AcDbCircle
10
37.648050348148523
20
42.187225616621369
30
0
40
1.25
210
0
220
-0
230
1
0
CIRCLE
5
114
100
AcDbEntity
8
0
100
AcDbCircle
10
48.625733657889583
20
59.286724702066337
30
0
40
1.25
210
0
220
-0
230
1
0
CIRCLE
5
115
100
AcDbEntity
8
0
100
AcDbCircle
10
-45.380186920123009
20
70.686905683405755
30
0
40
1.6000000000000014
210
0
220
-0
230
1
0
CIRCLE
5
116
100
AcDbEntity
8
0
100
AcDbCircle
10
22.68598863410984
20
51.792698521808688
30
0
40
1.25
210
0
220
-0
230
1
0
LWPOLYLINE
5
117
100
AcDbEntity
8
0
100
AcDbPolyline
90
32
70
1
43
0.0
10
-41.172633010396467
20
73.388107285793993
42
0.99999999999999989
10
-49.587740829849551
20
67.985704081017474
10
-41.145930269432895
20
54.836232750463232
42
-0.35228494941880795
10
-42.480889790473725
20
42.371853896302738
42
0.41346102656733097
10
-42.480889790473633
20
-42.371853896302738
42
-0.35228494941880795
10
-41.145930269432867
20
-54.836232750463097
10
-49.587740829849558
20
-67.985704081017516
42
0.99999999999999989
10
-41.172633010396524
20
-73.388107285793922
10
-32.730822449979811
20
-60.238635955239758
42
-0.35228494941880811
10
-20.842041111879979
20
-56.263747851442517
42
0.17926517506137182
10
20.842041111880079
20
-56.263747851442474
42
-0.35228494941881033
10
32.730822449979897
20
-60.238635955239708
10
41.172633010396595
20
-73.388107285794007
42
0.99999999999999989
10
49.587740829849494
20
-67.985704081017474
10
41.145930269432888
20
-54.836232750463274
42
-0.35228494941880834
10
42.480889790473675
20
-42.37185389630276
42
0.40210575188591163
10
44.098428071485351
20
40.68573019652014
42
-0.34137748594699519
10
43.565743167715951
20
46.777409315285141
10
50.729510612322748
20
57.936123901148306
42
0.41421356244753144
10
49.976334458272959
20
61.390501656842744
10
47.123612907095726
20
63.221916342483723
42
-0.41421356244758256
10
46.972977676455024
20
63.912791892846499
10
49.587740829849558
20
67.985704081017431
42
0.99999999999999989
10
41.172633010396567
20
73.388107285793978
10
38.557869854742449
20
69.315195094103444
42
-0.414213562135476
10
37.866994301676307
20
69.164559862671666
10
35.014132823476999
20
70.996064377619987
42
0.41419408306193423
10
31.559895011365974
20
70.242798409686827
10
24.396127560300847
20
59.084083813763442
42
-0.34137748596705242
10
18.635606446684044
20
57.032571153370839
42
0.16923326418552515
10
-20.842041111880036
20
56.263747851442517
42
-0.35228494941881017
10
-32.730822449979819
20
60.238635955239729
0
ENDSEC
0
SECTION
2
OBJECTS
0
DICTIONARY
5
C
100
AcDbDictionary
3
ACAD_GROUP
350
D
3
ACAD_MLINESTYLE
350
17
0
DICTIONARY
5
D
100
AcDbDictionary
0
DICTIONARY
5
1A
330
C
100
AcDbDictionary
0
DICTIONARY
5
17
100
AcDbDictionary
0
ENDSEC
0
EOF
