0
SECTION
2
HEADER
9
$INSUNITS
70
4
9
$ACADVER
1
AC1014
9
$HANDSEED
5
FFFF
0
ENDSEC
0
SECTION
2
TABLES
0
TABLE
2
VPORT
5
8
100
AcDbSymbolTable
0
ENDTAB
0
TABLE
2
LTYPE
5
5
100
AcDbSymbolTable
0
LTYPE
5
14
100
AcDbSymbolTableRecord
100
AcDbLinetypeTableRecord
2
BYBLOCK
70
0
0
LTYPE
5
15
100
AcDbSymbolTableRecord
100
AcDbLinetypeTableRecord
2
BYLAYER
70
0
0
LTYPE
5
16
100
AcDbSymbolTableRecord
100
AcDbLinetypeTableRecord
2
DASHED
70
0
3
Dashed __ __ __ __ __ __ __ __ __ __ __ __ __ _
72
65
73
2
40
0.75
49
0.5
74
0
49
-0.25
74
0
0
ENDTAB
0
TABLE
2
LAYER
5
2
100
AcDbSymbolTable
70
3
0
LAYER
5
50
100
AcDbSymbolTableRecord
100
AcDbLayerTableRecord
2
1
70
0
62
7
6
DASHED
0
LAYER
5
51
100
AcDbSymbolTableRecord
100
AcDbLayerTableRecord
2
0
70
0
62
7
6
CONTINUOUS
0
ENDTAB
0
TABLE
2
STYLE
5
3
100
AcDbSymbolTable
70
1
0
STYLE
5
11
100
AcDbSymbolTableRecord
100
AcDbTextStyleTableRecord
2
STANDARD
70
0
0
ENDTAB
0
TABLE
2
VIEW
5
6
100
AcDbSymbolTable
70
0
0
ENDTAB
0
TABLE
2
UCS
5
7
100
AcDbSymbolTable
70
0
0
ENDTAB
0
TABLE
2
APPID
5
9
100
AcDbSymbolTable
70
2
0
APPID
5
12
100
AcDbSymbolTableRecord
100
AcDbRegAppTableRecord
2
ACAD
70
0
0
ENDTAB
0
TABLE
2
DIMSTYLE
5
A
100
AcDbSymbolTable
70
1
0
ENDTAB
0
TABLE
2
BLOCK_RECORD
5
1
100
AcDbSymbolTable
70
1
0
BLOCK_RECORD
5
1F
100
AcDbSymbolTableRecord
100
AcDbBlockTableRecord
2
*MODEL_SPACE
0
BLOCK_RECORD
5
1B
100
AcDbSymbolTableRecord
100
AcDbBlockTableRecord
2
*PAPER_SPACE
0
ENDTAB
0
ENDSEC
0
SECTION
2
BLOCKS
0
BLOCK
5
20
100
AcDbEntity
100
AcDbBlockBegin
2
*MODEL_SPACE
0
ENDBLK
5
21
100
AcDbEntity
100
AcDbBlockEnd
0
BLOCK
5
1C
100
AcDbEntity
100
AcDbBlockBegin
2
*PAPER_SPACE
0
ENDBLK
5
1D
100
AcDbEntity
100
AcDbBlockEnd
0
ENDSEC
0
SECTION
2
ENTITIES
0
CIRCLE
5
100
100
AcDbEntity
8
0
100
AcDbCircle
10
27.012016023882751
20
42.075539097265292
30
0
40
1.599999999999997
210
0
220
-0
230
1
0
CIRCLE
5
101
100
AcDbEntity
8
0
100
AcDbCircle
10
-27.012016023882751
20
-42.075539097265292
30
0
40
1.599999999999997
210
0
220
-0
230
1
0
LINE
5
102
100
AcDbEntity
8
0
100
AcDbLine
10
-8
20
-14.399999999999999
30
0
11
-8
21
14.399999999999999
31
0
0
ARC
5
103
100
AcDbEntity
8
0
100
AcDbCircle
10
7
20
-14.399999999999999
30
0
40
1.0000000000000009
210
-0
220
0
230
1
100
AcDbArc
50
-90
51
0
0
LINE
5
104
100
AcDbEntity
8
0
100
AcDbLine
10
7
20
-15.4
30
0
11
-7
21
-15.4
31
0
0
ARC
5
105
100
AcDbEntity
8
0
100
AcDbCircle
10
-7
20
-14.399999999999999
30
0
40
1.0000000000000009
210
0
220
0
230
1
100
AcDbArc
50
180
51
270
0
CIRCLE
5
106
100
AcDbEntity
8
0
100
AcDbCircle
10
-27.012016023882751
20
42.075539097265292
30
0
40
1.599999999999997
210
0
220
-0
230
1
0
CIRCLE
5
107
100
AcDbEntity
8
0
100
AcDbCircle
10
27.012016023882751
20
-42.075539097265292
30
0
40
1.599999999999997
210
0
220
-0
230
1
0
ARC
5
108
100
AcDbEntity
8
0
100
AcDbCircle
10
-7
20
14.399999999999999
30
0
40
1.0000000000000009
210
0
220
-0
230
1
100
AcDbArc
50
90
51
180
0
LINE
5
109
100
AcDbEntity
8
0
100
AcDbLine
10
-7
20
15.4
30
0
11
7
21
15.4
31
0
0
ARC
5
110
100
AcDbEntity
8
0
100
AcDbCircle
10
7
20
14.399999999999999
30
0
40
0.99999999999999978
210
0
220
-0
230
1
100
AcDbArc
50
0
51
90
0
LINE
5
111
100
AcDbEntity
8
0
100
AcDbLine
10
7.9999999999999991
20
14.399999999999999
30
0
11
8
21
-14.399999999999999
31
0
0
LWPOLYLINE
5
112
100
AcDbEntity
8
0
100
AcDbPolyline
90
24
70
1
43
0.0
10
-22.804462114156223
20
44.776740699653573
42
0.99999999999999989
10
-31.219569933609279
20
39.374337494877018
10
-13.792446090273472
20
12.228802338417385
42
-0.14365683636497356
10
-12.999999999999998
20
9.527600736029104
10
-12.999999999999998
20
-9.5276007360291093
42
-0.14365683636497334
10
-13.792446090273469
20
-12.228802338417387
10
-31.219569933609282
20
-39.374337494877018
42
0.99999999999999989
10
-22.804462114156223
20
-44.776740699653573
10
-8.6306750627652455
20
-22.698798397611732
42
-0.25536153733289951
10
-4.4231211530387124
20
-20.399999999999999
10
4.4231211530387196
20
-20.399999999999999
42
-0.2553615373328994
10
8.6306750627652526
20
-22.698798397611725
10
22.80446211415622
20
-44.776740699653573
42
0.99999999999999989
10
31.219569933609282
20
-39.374337494877025
10
13.792446090273472
20
-12.228802338417388
42
-0.14365683636497356
10
12.999999999999998
20
-9.5276007360291075
10
13
20
9.5276007360291146
42
-0.14365683636497323
10
13.792446090273472
20
12.22880233841739
10
31.219569933609282
20
39.374337494877018
42
0.99999999999999989
10
22.804462114156223
20
44.776740699653573
10
8.6306750627652455
20
22.698798397611732
42
-0.25536153733289951
10
4.4231211530387124
20
20.399999999999999
10
-4.4231211530387196
20
20.399999999999999
42
-0.2553615373328994
10
-8.6306750627652526
20
22.698798397611725
0
LWPOLYLINE
5
113
100
AcDbEntity
8
0
100
AcDbPolyline
90
4
70
1
43
0.0
10
11.600000000000001
20
2.3999999999999999
42
0.99999999999999989
10
9.3999999999999986
20
2.4000000000000012
10
9.3999999999999986
20
-2.6000000000000023
42
0.99999999999999989
10
11.600000000000001
20
-2.6000000000000023
0
LWPOLYLINE
5
114
100
AcDbEntity
8
0
100
AcDbPolyline
90
4
70
1
43
0.0
10
11.600000000000001
20
14.900000000000002
42
0.99999999999999989
10
9.3999999999999986
20
14.900000000000006
10
9.3999999999999986
20
9.9000000000000004
42
0.99999999999999989
10
11.600000000000001
20
9.9000000000000004
0
LWPOLYLINE
5
115
100
AcDbEntity
8
0
100
AcDbPolyline
90
4
70
1
43
0.0
10
-11.600000000000001
20
-2.6000000000000023
10
-11.600000000000001
20
2.4000000000000012
42
-0.99999999999999989
10
-9.3999999999999986
20
2.3999999999999999
10
-9.3999999999999986
20
-2.6000000000000032
42
-0.99999999999999989
0
LWPOLYLINE
5
116
100
AcDbEntity
8
0
100
AcDbPolyline
90
4
70
1
43
0.0
10
-11.600000000000001
20
9.9000000000000004
42
0.99999999999999989
10
-9.3999999999999986
20
9.9000000000000004
10
-9.3999999999999986
20
14.900000000000002
42
0.99999999999999989
10
-11.600000000000001
20
14.900000000000002
0
CIRCLE
5
117
100
AcDbEntity
8
0
100
AcDbCircle
10
10.5
20
-12.4
30
0
40
1.100000000000001
210
0
220
-0
230
1
0
CIRCLE
5
118
100
AcDbEntity
8
0
100
AcDbCircle
10
-10.5
20
-12.4
30
0
40
1.100000000000001
210
0
220
-0
230
1
0
ENDSEC
0
SECTION
2
OBJECTS
0
DICTIONARY
5
C
100
AcDbDictionary
3
ACAD_GROUP
350
D
3
ACAD_MLINESTYLE
350
17
0
DICTIONARY
5
D
100
AcDbDictionary
0
DICTIONARY
5
1A
330
C
100
AcDbDictionary
0
DICTIONARY
5
17
100
AcDbDictionary
0
ENDSEC
0
EOF
